<?xml version="1.0"?>
<svg xmlns="http://www.w3.org/2000/svg" height="512px" viewBox="-1 0 427 427.16437" width="512px" class=""><g><path d="m417.082031 48.890625-36.628906 36.628906-40.890625-40.890625 36.621094-36.628906zm0 0" fill="#00acea" data-original="#00ACEA" class="" style="fill:#8E4F00" data-old_color="#00acea"/><path d="m339.5625 44.628906 49.371094 49.371094-25.453125 25.460938-5.660157-5.660157-46.546874-46.550781-5.660157-5.660156 25.457031-25.449219zm0 0" fill="#fedb41" data-original="#FEDB41" class="active-path" data-old_color="#fedb41" style="fill:#376C00"/><path d="m357.820312 113.800781-26.527343 26.527344c-4.511719 4.511719-7.878907 10.035156-9.820313 16.113281l-10.609375 53.167969c-3.828125 19.179687-13.253906 36.792969-27.082031 50.621094l-153.089844 153.097656c-7.8125 7.8125-20.476562 7.8125-28.289062 0l-88.460938-88.457031c-7.808594-7.8125-7.808594-20.476563 0-28.292969l154.691406-154.6875c13.300782-13.296875 30.113282-22.527344 48.46875-26.621094l52.109376-11.609375c5.707031-1.984375 10.890624-5.238281 15.160156-9.511718l26.902344-26.898438zm-213.867187 243.828125 98.949219-98.9375-74.320313-74.320312-98.949219 98.949218zm0 0" fill="#00efd1" data-original="#00EFD1" class="" data-old_color="#00efd1" style="fill:#3EAE26"/><path d="m69.632812 283.3125 98.953126-98.941406 74.3125 74.320312-98.953126 98.945313zm0 0" fill="#00acea" data-original="#00ACEA" class="" style="fill:#8E4F00" data-old_color="#00acea"/><g fill="#083863"><path d="m174.238281 178.714844c-3.125-3.125-8.1875-3.125-11.3125 0l-98.949219 98.949218c-3.125 3.125-3.125 8.1875 0 11.3125l74.316407 74.308594c3.125 3.125 8.191406 3.125 11.3125 0l98.953125-98.9375c3.125-3.125 3.125-8.191406 0-11.316406zm-30.285156 167.597656-63.007813-63 87.636719-87.628906 63.003907 63.007812zm0 0" data-original="#083863" class="" style="fill:#083863"/><path d="m381.835938 2.34375c-1.5-1.5-3.53125-2.34375-5.652344-2.34375-2.125 0-4.160156.84375-5.660156 2.34375l-30.960938 30.972656-2.832031-2.832031c-3.125-3.125-8.191407-3.125-11.316407 0l-25.457031 25.449219c-3.125 3.125-3.125 8.191406 0 11.3125l-21.25 21.25c-3.316406 3.308594-7.316406 5.855468-11.71875 7.460937l-51.628906 11.5c-19.84375 4.414063-38.015625 14.394531-52.386719 28.769531l-154.691406 154.695313c-10.933594 10.9375-10.933594 28.664063 0 39.601563l88.460938 88.460937c10.945312 10.90625 28.652343 10.90625 39.597656 0l153.097656-153.09375c14.964844-14.933594 25.152344-33.976563 29.269531-54.710937l10.519531-52.707032c1.574219-4.699218 4.21875-8.972656 7.722657-12.484375l20.871093-20.871093c3.125 3.125 8.191407 3.125 11.316407 0l25.449219-25.460938c3.125-3.125 3.125-8.1875 0-11.3125l-2.820313-2.824219 30.972656-30.972656c3.125-3.125 3.125-8.191406 0-11.3125zm-56.199219 132.328125c-5.40625 5.417969-9.445313 12.046875-11.78125 19.335937-.09375.285157-.167969.574219-.226563.867188l-10.609375 53.167969c-3.503906 17.632812-12.167969 33.828125-24.890625 46.53125l-153.089844 153.097656c-4.691406 4.675781-12.285156 4.675781-16.980468 0l-88.460938-88.460937c-4.6875-4.6875-4.6875-12.289063 0-16.976563l154.683594-154.6875c12.222656-12.226563 27.679688-20.714844 44.554688-24.46875l52.113281-11.609375c.304687-.066406.605469-.152344.898437-.253906 6.839844-2.394532 13.050782-6.292969 18.179688-11.40625l21.242187-21.246094 35.238281 35.238281zm37.84375-26.527344-46.550781-46.554687 14.144531-14.140625 46.546875 46.550781zm16.972656-33.9375-29.578125-29.578125 25.308594-25.316406 29.585937 29.578125zm0 0" data-original="#083863" class="" style="fill:#083863"/></g></g> </svg>
