<?xml version="1.0" encoding="iso-8859-1"?>
<!-- Generator: Adobe Illustrator 19.0.0, SVG Export Plug-In . SVG Version: 6.00 Build 0)  -->
<svg version="1.1" id="Capa_1" xmlns="http://www.w3.org/2000/svg" xmlns:xlink="http://www.w3.org/1999/xlink" x="0px" y="0px"
	 viewBox="0 0 512.004 512.004" style="enable-background:new 0 0 512.004 512.004;" xml:space="preserve">
<path style="fill:#D3A584;" d="M381.326,504.5c-2.06,0-4.01-0.65-5.62-1.79c-1.6-1.13-2.86-2.74-3.56-4.69l-63.313-178.29l-2.9-8.15
	l-3.11-8.76c-1.91-5.37,1.18-11.221,6.7-12.671l16.851-4.44c5.2-1.36,10.521,1.75,11.891,6.94l4.11,15.641l0.12,0.46l48.253,183.54
	C392.367,498.459,387.716,504.5,381.326,504.5z"/>
<path style="fill:#B28769;" d="M342.374,308.289l-36.442,3.29l-3.11-8.76c-1.91-5.37,1.18-11.221,6.7-12.671l16.851-4.44
	c5.2-1.36,10.521,1.75,11.891,6.94L342.374,308.289z"/>
<path style="fill:#D3A584;" d="M193.766,302.399l-7.08,19.961l-2.28,6.42l-59.963,168.819c-1.39,3.88-5.06,6.48-9.181,6.48
	c-5.51,0-9.741-4.5-9.741-9.721c0-0.82,0.1-1.65,0.33-2.5l43.552-165.649l1.62-6.17l7.3-27.801c1.38-5.2,6.7-8.31,11.901-6.95
	l16.841,4.44C192.586,291.178,195.686,297.028,193.766,302.399z"/>
<path style="fill:#B28769;" d="M193.766,302.399l-7.08,19.961l-2.69,0.24c-2.98,0.27-6,0.4-8.98,0.4
	c-8.26,0-16.301-1.02-23.991-2.96l7.3-27.801c1.38-5.2,6.7-8.31,11.901-6.95l16.841,4.44
	C192.586,291.178,195.686,297.028,193.766,302.399z"/>
<path style="fill:#FF0435;" d="M84.123,11.207L84.123,11.207c12.854,11.332,21.729,26.49,25.319,43.244l27.857,129.995
	c9.514,44.394,48.746,76.11,94.148,76.11h167.674c19.305,0,37.551,8.826,49.534,23.963l0,0c9.94,12.556-4.563,29.681-18.584,21.945
	l0,0c-19.444-10.728-41.653-15.392-63.769-13.394l-183.47,16.579c-48.195,4.355-90.422-32.058-93.202-80.368l-7.49-130.146
	c-1.415-24.588-8.324-48.548-20.218-70.114l0,0C54.094,14.833,71.969,0.492,84.123,11.207z"/>
<path style="fill:#B70000;" d="M451.93,293.568c0,10.081-11.071,18.851-21.861,12.901c-16.511-9.11-35.012-13.851-53.763-13.851
	c-3.33,0-6.67,0.15-10.011,0.45l-183.47,16.581c-47.513,4.3-89.215-31.042-93.055-78.324c13.731,41.052,54.723,69.364,94.055,65.804
	l183.47-16.581c3.33-0.3,6.67-0.45,9.991-0.45c18.761,0,37.272,4.74,53.783,13.851c8,4.41,16.171,0.73,19.841-5.59
	C451.61,290.088,451.93,291.848,451.93,293.568z"/>
<path d="M454.534,279.864c-13.487-17.037-33.686-26.807-55.414-26.807H231.447c-41.59,0-78.1-29.516-86.815-70.182L116.777,52.879
	c-3.899-18.196-13.734-34.994-27.693-47.3c-8.155-7.187-19.77-7.457-28.249-0.655c-8.479,6.802-10.733,18.2-5.483,27.719
	C66.634,53.1,73.307,76.241,74.65,99.566l7.49,130.146c0.918,15.955,5.935,31.46,14.508,44.837
	c2.234,3.488,6.873,4.503,10.362,2.269c3.487-2.235,4.503-6.874,2.268-10.362c-7.186-11.214-11.392-24.217-12.162-37.606
	l-7.49-130.146c-1.47-25.549-8.779-50.898-21.139-73.305c-2.618-4.748,0.667-7.915,1.736-8.773c1.069-0.857,4.873-3.376,8.939,0.208
	c11.566,10.196,19.715,24.114,22.945,39.19l27.856,129.995c4.959,23.143,17.827,44.084,36.234,58.964
	c18.406,14.88,41.578,23.075,65.248,23.075h167.673c17.117,0,33.028,7.697,43.653,21.118c3.379,4.269,0.739,8.028-0.15,9.079
	c-0.89,1.051-4.166,4.272-8.93,1.644c-20.834-11.495-44.375-16.438-68.068-14.297l-26.957,2.436
	c-0.106,0.005-0.213,0.019-0.32,0.029l-156.192,14.114c-18.226,1.647-36.524-3.181-51.53-13.594
	c-3.401-2.361-8.074-1.518-10.438,1.886c-2.361,3.403-1.517,8.076,1.887,10.439c7.174,4.979,14.985,8.872,23.162,11.642
	l-12.317,46.833c-1.054,4.006,1.34,8.107,5.346,9.161c0.64,0.168,1.28,0.249,1.912,0.249c3.325,0,6.363-2.228,7.248-5.594
	l12.36-46.995c5.062,0.846,10.2,1.292,15.365,1.292c1.785,0,3.574-0.071,5.363-0.174l-63.136,177.762
	c-0.198,0.557-0.57,0.909-0.804,1.076c-0.272,0.191-0.721,0.419-1.312,0.419c-0.956,0-1.52-0.546-1.77-0.872
	c-0.25-0.324-0.632-1.004-0.387-1.932l25.772-98.045c1.053-4.006-1.341-8.107-5.348-9.16c-4.005-1.054-8.106,1.341-9.16,5.347
	l-25.769,98.036c-1.376,5.206-0.279,10.64,3.007,14.907c3.289,4.27,8.266,6.719,13.655,6.719c3.567,0,7.001-1.086,9.973-3.172
	c2.913-2.075,5.082-4.943,6.276-8.298l27.886-78.511l87.239-35.51l90.954,37.022l27.498,77.416
	c2.434,6.862,8.96,11.474,16.239,11.474c9.507,0,17.241-7.725,17.241-17.221c0-1.486-0.19-2.965-0.566-4.396l-24.74-94.115
	c-1.054-4.006-5.149-6.399-9.161-5.347c-4.006,1.053-6.399,5.154-5.347,9.161l24.74,94.114c0.051,0.192,0.074,0.377,0.074,0.583
	c0,1.068-0.856,2.22-2.24,2.22c-0.941,0-1.786-0.598-2.103-1.49l-67.479-189.976l21.639-1.955l16.967,64.552
	c0.886,3.367,3.924,5.595,7.249,5.595c0.631,0,1.272-0.081,1.911-0.249c4.007-1.053,6.4-5.154,5.348-9.16l-16.324-62.107
	l18.439-1.666c20.7-1.871,41.269,2.448,59.472,12.491c9.509,5.245,20.607,3.201,27.624-5.083
	C461.087,299.663,461.273,288.377,454.534,279.864z M166.12,402.665l15.314-43.116l45.305,18.441L166.12,402.665z M266.529,377.99
	l48.082-19.571l16.253,45.759L266.529,377.99z M309.585,344.269l-62.95,25.623l-60.174-24.493l10.476-29.493l99.385-8.98
	L309.585,344.269z"/>
<g>
</g>
<g>
</g>
<g>
</g>
<g>
</g>
<g>
</g>
<g>
</g>
<g>
</g>
<g>
</g>
<g>
</g>
<g>
</g>
<g>
</g>
<g>
</g>
<g>
</g>
<g>
</g>
<g>
</g>
</svg>
